<svg id="Layer_2" data-name="Layer 2" xmlns="http://www.w3.org/2000/svg" viewBox="0 0 1000 1000"><defs><style class="hallo">.cls-1{fill:#135930;}.cls-2,.cls-3{fill:none;stroke:#135930;stroke-linecap:round;stroke-linejoin:round;}.cls-2{stroke-width:8px;}.cls-3{stroke-width:6.13px;}</style></defs><g id="Layer_1" data-name="Layer 1"><path class="cls-1" d="M433.16,901.71h74.35C501.38,852,492,725.47,493.08,717.16s18.64-64.11,33.25-91c23.95-24.09,58.25-38.84,96.32-50.2-29.47-.26-56.94,3.32-79.69,16,15.44-43.54,43-82.7,79.69-118.59-50,31.78-94.8,86.61-130.83,181-5.31-54.38-.57-114.24,11.92-134.35,58-92.31,192.58-127.81,257.26-128.86-49.73-.63-100,.73-155.61,19.76,9-21.72,15-62,19.77-110.43-13.33,45.59-29.76,91.75-46,123.45-36.67,22.57-56.88,39.39-79.19,56.94,8-19,12.9-44.16,21.78-62,39.38-78.9,56.54-164.51,63.53-240.16C566,264.59,537.19,342.08,498.1,410.65l-23.22-78.12c1-39.88,10.58-91.65,23.53-148.08-19.38,45.43-35.68,89.08-33.57,122-27.85-47.18-60-81.77-93.49-112.31,46.34,55.49,85.74,127.64,108.24,240.31-9.81,8.69-17.83,21.33-24.47,37C412.38,408.93,360.23,346.1,261.55,282c39,39.27,75.64,76.74,97.88,103.53-42-8.44-70.78-5.75-96.63-.63,42,2.88,80.7,7.44,109.81,16.94a626.42,626.42,0,0,1,70,101.34c-9.15,29.31-13.85,59.38-15.06,90-15.32-12.71-30.93-23.3-47.06-30.12a849.63,849.63,0,0,1-47.06-83.77c5.88,29.29,13.33,54.67,23.84,72.47-23.14-7.75-45.86-12.29-68.39-15.37,58.72,21.3,99,49.24,132.08,86.28l.31,90c-41.88-39.86-100.66-68.39-166-92.54,65,37.2,120.89,75.65,164.4,115.76Z"/><path class="cls-2" d="M695.27,262.18c1.82,45.41-19.64,68.85-58.59,75.76C635.3,294.56,650.49,265.54,695.27,262.18Z"/><path class="cls-2" d="M732.91,336.2c-18.8,41.38-48.5,52.67-86.4,41.34C664.78,338.17,691.39,319.07,732.91,336.2Z"/><path class="cls-2" d="M821.89,329.2c-18.8,41.37-48.5,52.66-86.4,41.33C753.76,331.16,780.37,312.07,821.89,329.2Z"/><path class="cls-2" d="M868.23,412.33c-41.05,19.51-71,9-92.69-24.12C814.9,369.9,847.55,372.47,868.23,412.33Z"/><path class="cls-2" d="M795.25,475.84c-44.83-7.44-63.43-33.2-62.29-72.75C775.72,410.55,801.05,431.31,795.25,475.84Z"/><path class="cls-2" d="M639.34,468.1c11.89-43.86,39.39-59.78,78.62-54.69C706.26,455.2,683.07,478.33,639.34,468.1Z"/><path class="cls-2" d="M580.19,558.93c11.89-43.86,39.39-59.79,78.62-54.7C647.12,546,623.92,569.16,580.19,558.93Z"/><path class="cls-2" d="M636.6,569.64c35.12-28.85,66.76-25.88,95.77,1C698.61,597.93,666.3,603.32,636.6,569.64Z"/><path class="cls-2" d="M589.76,598.44c43.19-14.15,71.59.08,88.89,35.66C637.3,647.28,605.23,640.61,589.76,598.44Z"/><path class="cls-2" d="M284.89,461.35c18.56-41.49,48.19-53,86.16-41.84C353,459,326.51,478.24,284.89,461.35Z"/><path class="cls-2" d="M401.23,552c-39.68-22.16-48.47-52.69-34-89.52C404.91,483.91,421.74,512,401.23,552Z"/><path class="cls-2" d="M312.05,620.85c-45.43,1.28-68.61-20.45-75.06-59.48C280.38,560.5,309.22,576,312.05,620.85Z"/><path class="cls-2" d="M292.73,360.77c-41,19.56-71,9.08-92.72-24C239.34,318.42,272,320.94,292.73,360.77Z"/><path class="cls-2" d="M207.65,457.07c15.64-42.68,44.41-56.16,83-47.7C275.44,450,250.34,471,207.65,457.07Z"/><path class="cls-2" d="M180.24,509.1c42.36-16.46,71.49-3.78,90.68,30.82C230.34,555.31,198,550.37,180.24,509.1Z"/><path class="cls-2" d="M148.94,574.62c43.24-14,71.6.32,88.77,36C196.32,623.62,164.28,616.83,148.94,574.62Z"/><path class="cls-2" d="M177.75,653.48c36.24-27.43,67.73-23.21,95.66,4.82C238.59,684.21,206.1,688.32,177.75,653.48Z"/><path class="cls-2" d="M149.47,406.21c29.84-34.27,61.53-36.59,94.61-14.89C215.31,423.82,184.35,434.5,149.47,406.21Z"/><path class="cls-2" d="M176.72,209.89c45.43,1.13,67.43,24.05,71.81,63.37C205.15,271.83,177.17,254.8,176.72,209.89Z"/><path class="cls-2" d="M267.33,207c40.48,20.65,50.42,50.83,37.38,88.18C266.21,275.14,248.34,247.69,267.33,207Z"/><path class="cls-3" d="M180,264.58c-32.12,13.52-54.72,4.42-70.16-21.69C140.65,230.23,165.57,233.33,180,264.58Z"/><path class="cls-3" d="M158.82,303.26c24.75-24.54,49.11-24.54,73.19-6.09C208.19,320.41,183.91,326.85,158.82,303.26Z"/><path class="cls-3" d="M613.24,179.6c-.93-34.84,15.76-52.59,45.7-57.49C659.55,155.38,647.61,177.48,613.24,179.6Z"/><path class="cls-3" d="M659.8,257.73c-1.88-34.8,14.31-53,44.1-58.73C705.43,232.24,694.11,254.66,659.8,257.73Z"/><path class="cls-3" d="M702.59,310.57c3.34-34.69,22.07-50.26,52.39-51.47C751.52,292.2,737,312.67,702.59,310.57Z"/><path class="cls-3" d="M592.86,341.38c-23.1-26.09-21.73-50.42-2-73.42C612.77,293.06,617.83,317.66,592.86,341.38Z"/><path class="cls-3" d="M556.52,411.81c-13.9-32-5.08-54.67,20.85-70.43C590.4,372,587.6,397,556.52,411.81Z"/><path class="cls-3" d="M506.36,554.7c-.26-34.85,16.77-52.28,46.79-56.61C553.13,531.38,540.77,553.24,506.36,554.7Z"/><path class="cls-3" d="M668.84,527.12c13-32.32,35.43-41.94,64.84-34.5C721,523.38,701.21,538.88,668.84,527.12Z"/><path class="cls-3" d="M732.37,594.44c28.54-20,52.56-15.88,73.16,6.38C778.12,619.7,753.11,621.94,732.37,594.44Z"/><path class="cls-3" d="M687.74,610.28c34.37-5.78,54.28,8.27,63.31,37.23C718.19,652.76,694.64,644,687.74,610.28Z"/><path class="cls-3" d="M807.76,435.39c34.71,3.09,50.43,21.71,51.86,52C826.49,484.18,805.91,469.78,807.76,435.39Z"/><path class="cls-3" d="M859.62,433.47c34.41-5.5,54.21,8.7,63,37.73C889.73,476.2,866.25,467.27,859.62,433.47Z"/><path class="cls-3" d="M126.93,318.44c34.72-2.95,53.42,12.67,60.06,42.27C153.8,363.27,131.05,352.63,126.93,318.44Z"/><path class="cls-3" d="M258.75,480.82c34.72-3,53.42,12.67,60.06,42.27C285.62,525.64,262.87,515,258.75,480.82Z"/><path class="cls-3" d="M116.59,508.23c34.73-3,53.42,12.68,60.06,42.28C143.47,553.06,120.71,542.43,116.59,508.23Z"/><path class="cls-3" d="M322.3,687.15c-24.5,24.78-48.87,25-73.12,6.8C272.77,670.48,297,663.8,322.3,687.15Z"/><path class="cls-3" d="M358.34,644.15c-30.15-17.49-36.51-41-25-69.07C362,592,374.56,613.77,358.34,644.15Z"/><path class="cls-3" d="M398.44,680.36c-26.51-22.63-28.53-46.91-12.13-72.43C411.44,629.74,419.87,653.41,398.44,680.36Z"/><path class="cls-2" d="M440.57,392.72c-45.31-3.43-66.12-27.44-68.51-66.93C415.31,329.42,442.39,347.85,440.57,392.72Z"/><path class="cls-2" d="M382.21,244.71c-44.53,9.1-71.12-8.29-84.21-45.62C340.58,190.74,371.67,201.05,382.21,244.71Z"/><path class="cls-2" d="M419.32,294.92c-39.07,23.21-69.9,15.5-94.51-15.47C362.3,257.59,395.05,257.13,419.32,294.92Z"/><path class="cls-2" d="M358.25,187.39c-45.44.81-68.4-21.16-74.45-60.25C327.2,126.72,355.88,142.54,358.25,187.39Z"/><path class="cls-2" d="M399.21,202.73c-33.25-31-34.49-62.74-11.68-95.06C419,137.52,428.66,168.83,399.21,202.73Z"/><path class="cls-2" d="M440.86,241.66c-25.33-37.74-19.33-68.94,10.23-95.23C475,182.66,477.25,215.34,440.86,241.66Z"/><path class="cls-2" d="M515.46,243.44c-9.41-44.47,7.81-71.17,45-84.53C569.15,201.44,559.05,232.6,515.46,243.44Z"/><path class="cls-2" d="M490.71,331.9C486,286.69,506,262,544.41,252.59,548.52,295.8,535.19,325.72,490.71,331.9Z"/><path class="cls-2" d="M502.74,171.32c-15.27-42.8-1.77-71.57,33.34-89.78C550.33,122.53,544.49,154.76,502.74,171.32Z"/><path class="cls-2" d="M591.77,157.27c-30.38-33.8-28.83-65.53-3.26-95.72C617.26,94.06,624.1,126.09,591.77,157.27Z"/><path class="cls-2" d="M621.29,286.44c-24.44-38.31-17.72-69.37,12.44-95C656.78,228.25,658.28,261,621.29,286.44Z"/></g></svg>