<svg id="Layer_2" data-name="Layer 2" xmlns="http://www.w3.org/2000/svg" viewBox="0 0 1000 1000"><defs><style>.cls-1{fill:#155930;}.cls-2{fill:#8bc972;}</style></defs><g id="Layer_1" data-name="Layer 1"><path class="cls-1" d="M781.67,325.46q-8.17-64.79-33.78-117.4a314,314,0,0,0-22.84-39.82Q679.15,100.52,601.56,67q-69-29.34-197.85-29.34H11.63V54.11Q30.17,59.26,37.37,67.5t7.21,24.2V686.39q0,16-7.21,24.2T11.63,724v16.47H403.71q97.38,0,160.23-17.25t109.75-57.41a302.46,302.46,0,0,0,28.89-28.11Q758.89,574.94,777,482.62q8.53-43.62,8.54-93.83A504.1,504.1,0,0,0,781.67,325.46ZM390.82,624.6H198V153.48h192.8q55.86,0,94,9,9.75,2.28,18.33,5.16a165.9,165.9,0,0,1,72.17,47.62q25.33,28.48,38.7,68.83Q629,329.07,629,388.79q0,39-6.17,71.62-18.62,98.37-93.32,139a168.5,168.5,0,0,1-36.93,14.26Q451.65,624.61,390.82,624.6Z"/><path class="cls-2" d="M781.67,325.46a378.54,378.54,0,0,1,46.71,27.78q32.52,21.9,32.53,41c0,2.25-.18,5.25-.56,9l15.71,9L967.5,231.87l-15.71-8.44q-15.7,13-27.49,12.95-7.29,0-39.83-12.95-94.83-40-158.21-54.91l-1.21-.28a314,314,0,0,1,22.84,39.82Q773.51,260.66,781.67,325.46ZM884.12,529.25Q846.55,502.88,798,488.31q-9.9-3-21.07-5.69Q733.46,472,671,465.33l-48.19-4.92-39.86-4.06q-88.61-9-115.53-16.81-52.16-15.68-52.14-58.87,0-26.32,20.43-48.76t53.47-33.64q45.36-14.58,104.72-14.57,10.18,0,20.17.4-13.34-40.35-38.7-68.83a165.9,165.9,0,0,0-72.17-47.62q-8.6-2.88-18.33-5.16-98.52,18.39-157.36,74.84-66.62,63.53-66.6,160.74,0,59,26.34,104.53,29.13,50.58,80.13,75.87A316.18,316.18,0,0,0,439.1,604.6q19.32,4.39,53.45,9,29.2,4,69.27,8.11l86.31,9q30.93,3.39,54.45,7,42.57,6.48,61,13.68,40.89,16.23,40.91,54.21,0,25.18-17.36,48.36t-46.48,37.16Q688,816.26,613.53,816.25q-68.31,0-144.47-23.55-71.58-22.16-108-52.25H287.29l-54,122.35,16.24,8.41q15.66-12.33,23-12.34,6.16,0,37.53,14.57,147.87,72.93,299.68,72.92,84.59,0,158.51-20.75Q867.4,898.13,914.47,841q52.1-62.79,52.1-143.52a213.58,213.58,0,0,0-22.17-95.86Q922.25,556.7,884.12,529.25Z"/></g></svg>