<svg id="Layer_2" data-name="Layer 2" xmlns="http://www.w3.org/2000/svg" viewBox="0 0 1000 1000"><defs><style>.cls-1{fill:#b2d677;}.cls-2{fill:#53b748;}</style></defs><g id="Layer_1" data-name="Layer 1"><path class="cls-1" d="M971.12,203.57c-10.57,8.81-20.29,13.23-28.23,13.23-5.3,0-19.41-4.42-41.45-13.23-65.3-27.35-120-46.76-164.13-57.37-13.23-2.63-27.34-5.3-42.33-7,23.83,22.92,42.33,49.39,57.36,80.28,12.36,25.6,21.17,52.94,27.35,82.92a376.82,376.82,0,0,1,63.5,35.28c22,15,33.53,29.14,33.53,42.38v9.69l15.87,8.81L987,212.38Zm-7.93,391.71c-15-30.9-36.16-56.49-62.63-75C875,501.76,845,487.64,811.42,477.92a255.46,255.46,0,0,0-27.34-7.06C776.14,535.28,755,589.1,720.57,633.19q38.38,6.63,55.57,13.24c28.23,10.6,42.34,30,42.34,55.6q0,26.44-18.5,50.27c-11.48,15.87-28.26,29.11-47.64,38.83-37.07,17.62-80.29,25.59-132.35,25.59-46.76,0-97-8-150-23.83-36.19-11.48-66.17-24.72-89.1-38.83H275L225.61,865.24l16.78,8.81c10.57-8.81,18.54-12.36,23.84-12.36,4.39,0,17.62,4.43,38.79,15,102.34,50.27,206.46,75,311.43,75q87.36,0,164.12-21.17c68.8-19.42,119.07-48.55,151.72-87.35,36.2-44.12,53.82-93.52,53.82-149.13A222.59,222.59,0,0,0,963.19,595.28ZM365,570.56a359.5,359.5,0,0,0,74.11,27.35c20.29,4.42,52.06,8.85,95.27,14.11,55.61-30.86,86.47-84.67,95.28-163.2l-40.58-4.43c-61.75-6.18-101.46-11.44-120-17.62-36.19-10.6-53.81-30.89-53.81-60.87q0-26.49,21.16-50.31a127,127,0,0,1,55.58-34.4c30.89-10.57,67.05-15,108.51-15H605a168.3,168.3,0,0,0-26.47-38.83c-19.41-22.93-44.13-38.83-72.35-48.52-25.59-7.93-59.12-13.23-101.46-14.11h-.87a301.5,301.5,0,0,0-80.29,52.94c-45.88,44.09-68.81,99.66-68.81,165.84,0,41.49,8.81,76.78,27.35,108.51C302.39,527.35,329.74,552.9,365,570.56Z"/><path class="cls-2" d="M380.9,754.07H275l37.06-82.93,16.76,7.94v7.06c0,17.64,7.94,33.52,24.7,48.52A167,167,0,0,0,380.9,754.07Z"/><path class="cls-2" d="M779.68,302.37c-52.06-23.83-111.16-35.3-174.68-36.18a168,168,0,0,0-26.48-38.82c-19.4-22.93-44.11-38.82-72.34-48.52-25.58-7.94-59.11-13.23-101.45-14.11,52-22.06,115.57-33.53,191.44-33.53A589.23,589.23,0,0,1,695,139.15c23.82,22.94,42.35,49.4,57.35,80.28C764.68,245,773.5,272.37,779.68,302.37Z"/><path class="cls-2" d="M779.69,302.35C727.63,278.55,668.51,267.07,605,266.2c18.54,36.15,27.35,81.16,27.35,135a402.66,402.66,0,0,1-2.67,47.64l50.31,5.3c40.58,4.38,75,9.69,104.09,16.74a436.55,436.55,0,0,0,5.3-69.68A500.55,500.55,0,0,0,779.69,302.35ZM567.05,615.57c-11.44-.88-22-2.67-32.65-3.55-.87,0-.87.88-1.75.88-30.9,16.78-77.62,24.71-139.41,24.71H200.06V164.74H404.72c52.07-22.05,115.57-33.53,191.43-33.53A589,589,0,0,1,695,139.15q-37-38.4-90-60.88c-45.88-19.41-112.06-30-198.52-30H13V65C25.37,68.59,34.18,73,38.61,78.27c5.26,6.18,7,14.12,7,24.72V700.24c0,10.61-1.79,18.54-7,23.84-4.43,6.18-13.24,10.57-25.6,14.11v15.87H275l37-82.92,16.78,7.93v7.06c0,17.66,7.93,33.53,24.68,48.52a168.51,168.51,0,0,0,27.38,19.41h25.56c65.3,0,119.11-5.27,160.57-16.75,42.34-11.48,79.41-30.89,110.27-58.24a263.43,263.43,0,0,0,43.25-45.88c-17.66-2.63-39.7-6.18-64.42-8.81Z"/><path class="cls-1" d="M784.08,470.86C776.14,535.28,755,589.1,720.57,633.19c-17.66-2.63-39.7-6.18-64.42-8.81l-89.1-8.81c-11.44-.88-22-2.67-32.65-3.55,55.61-30.86,86.47-84.67,95.28-163.2l50.31,5.3C720.57,458.5,755,463.81,784.08,470.86Z"/></g></svg>