<svg id="Layer_2" data-name="Layer 2" xmlns="http://www.w3.org/2000/svg" viewBox="0 0 1000 1000"><defs><style>.cls-1{fill:none;stroke:#135930;stroke-linecap:round;stroke-linejoin:round;stroke-width:25px;}</style></defs><g id="Layer_1" data-name="Layer 1"><path class="cls-1" d="M807.16,263.5q-102.61-31-168.06-31-86.77,0-156.35,36.48T375.54,373.5H771.16l-21.28,93H344.44a357.64,357.64,0,0,0-3.28,49.36V534.5h394l-20.73,93H361.9q30,67.9,94.29,103.45T608.83,766.5q75.21,0,185.33-32L774,865.33Q661.79,885.49,582.27,885.5q-146,0-249.48-66.94T197.16,627.5h-72l21.08-93h38.92v-9.87a507.77,507.77,0,0,1,3.27-58.13H125.16l21.13-93H207.5q40.88-125.67,148.29-192.34T616.91,114.5q75.75,0,183.16,21.12Z"/></g></svg>