<svg id="Layer_2" data-name="Layer 2" xmlns="http://www.w3.org/2000/svg" viewBox="0 0 1000 1000"><defs><style>.cls-1{fill:none;stroke:#135930;stroke-miterlimit:10;stroke-width:25px;}</style></defs><g id="Layer_1" data-name="Layer 1"><circle class="cls-1" cx="744.54" cy="256.41" r="99.35"/><path class="cls-1" d="M702.48,406.4A156.21,156.21,0,0,1,900.65,556.77v77.55"/><circle class="cls-1" cx="500" cy="256.41" r="99.35"/><path class="cls-1" d="M457.93,406.4a157,157,0,0,1,84.14,0"/><path class="cls-1" d="M721.62,465a99.34,99.34,0,1,1-19.14-58.62A99.36,99.36,0,0,1,721.62,465Z"/><path class="cls-1" d="M466.16,842.93V765.38a156.11,156.11,0,1,1,312.22,0v77.55"/><path class="cls-1" d="M533.84,842.93V765.38a156.11,156.11,0,1,0-312.22,0v77.55"/><circle class="cls-1" cx="255.46" cy="256.41" r="99.35"/><path class="cls-1" d="M477.07,465a99.34,99.34,0,1,1-19.14-58.62A99.36,99.36,0,0,1,477.07,465Z"/><path class="cls-1" d="M99.35,634.32V556.77A156.21,156.21,0,0,1,297.52,406.4"/></g></svg>